<svg width="20" height="20" viewBox="0 0 20 20" fill="none" xmlns="http://www.w3.org/2000/svg">
<path d="M14.543 18.9584C13.6013 18.9584 12.6096 18.7334 11.5846 18.3001C10.5846 17.8751 9.5763 17.2917 8.59297 16.5834C7.61797 15.8667 6.6763 15.0667 5.78464 14.1917C4.9013 13.3001 4.1013 12.3584 3.39297 11.3917C2.6763 10.3917 2.1013 9.39175 1.69297 8.42508C1.25964 7.39175 1.04297 6.39175 1.04297 5.45008C1.04297 4.80008 1.15964 4.18341 1.38464 3.60841C1.61797 3.01675 1.99297 2.46675 2.5013 1.99175C3.14297 1.35841 3.8763 1.04175 4.65964 1.04175C4.98464 1.04175 5.31797 1.11675 5.6013 1.25008C5.9263 1.40008 6.2013 1.62508 6.4013 1.92508L8.33464 4.65008C8.50964 4.89175 8.64297 5.12508 8.73464 5.35841C8.84297 5.60841 8.9013 5.85841 8.9013 6.10008C8.9013 6.41675 8.80964 6.72508 8.63464 7.01675C8.50964 7.24175 8.31797 7.48342 8.0763 7.72508L7.50964 8.31675C7.51797 8.34175 7.5263 8.35841 7.53464 8.37508C7.63464 8.55008 7.83464 8.85008 8.21797 9.30008C8.6263 9.76675 9.00964 10.1917 9.39297 10.5834C9.88464 11.0667 10.293 11.4501 10.6763 11.7667C11.1513 12.1667 11.4596 12.3667 11.643 12.4584L11.6263 12.5001L12.2346 11.9001C12.493 11.6417 12.743 11.4501 12.9846 11.3251C13.443 11.0417 14.0263 10.9917 14.6096 11.2334C14.8263 11.3251 15.0596 11.4501 15.3096 11.6251L18.0763 13.5917C18.3846 13.8001 18.6096 14.0667 18.743 14.3834C18.868 14.7001 18.9263 14.9917 18.9263 15.2834C18.9263 15.6834 18.8346 16.0834 18.6596 16.4584C18.4846 16.8334 18.268 17.1584 17.993 17.4584C17.518 17.9834 17.0013 18.3584 16.4013 18.6001C15.8263 18.8334 15.2013 18.9584 14.543 18.9584ZM4.65964 2.29175C4.2013 2.29175 3.7763 2.49175 3.36797 2.89175C2.98464 3.25008 2.71797 3.64175 2.5513 4.06675C2.3763 4.50008 2.29297 4.95841 2.29297 5.45008C2.29297 6.22508 2.4763 7.06675 2.84297 7.93341C3.21797 8.81675 3.74297 9.73341 4.40964 10.6501C5.0763 11.5667 5.83464 12.4584 6.66797 13.3001C7.5013 14.1251 8.4013 14.8917 9.3263 15.5667C10.2263 16.2251 11.1513 16.7584 12.068 17.1417C13.493 17.7501 14.8263 17.8917 15.9263 17.4334C16.3513 17.2584 16.7263 16.9917 17.068 16.6084C17.2596 16.4001 17.4096 16.1751 17.5346 15.9084C17.6346 15.7001 17.6846 15.4834 17.6846 15.2667C17.6846 15.1334 17.6596 15.0001 17.593 14.8501C17.568 14.8001 17.518 14.7084 17.3596 14.6001L14.593 12.6334C14.4263 12.5167 14.2763 12.4334 14.1346 12.3751C13.9513 12.3001 13.8763 12.2251 13.593 12.4001C13.4263 12.4834 13.2763 12.6084 13.1096 12.7751L12.4763 13.4001C12.1513 13.7167 11.6513 13.7917 11.268 13.6501L11.043 13.5501C10.7013 13.3667 10.3013 13.0834 9.85964 12.7084C9.45964 12.3667 9.0263 11.9667 8.5013 11.4501C8.09297 11.0334 7.68464 10.5917 7.25964 10.1001C6.86797 9.64175 6.58464 9.25008 6.40964 8.92508L6.30964 8.67508C6.25964 8.48341 6.24297 8.37508 6.24297 8.25841C6.24297 7.95841 6.3513 7.69175 6.55964 7.48341L7.18464 6.83341C7.3513 6.66675 7.4763 6.50841 7.55964 6.36675C7.6263 6.25841 7.6513 6.16675 7.6513 6.08341C7.6513 6.01675 7.6263 5.91675 7.58464 5.81675C7.5263 5.68341 7.43464 5.53341 7.31797 5.37508L5.38464 2.64175C5.3013 2.52508 5.2013 2.44175 5.0763 2.38341C4.94297 2.32508 4.8013 2.29175 4.65964 2.29175ZM11.6263 12.5084L11.493 13.0751L11.718 12.4917C11.6763 12.4834 11.643 12.4917 11.6263 12.5084Z" fill="white"/>
<path d="M15.4167 8.12504C15.075 8.12504 14.7917 7.84171 14.7917 7.50004C14.7917 7.20004 14.4917 6.57504 13.9917 6.04171C13.5 5.51671 12.9583 5.20837 12.5 5.20837C12.1583 5.20837 11.875 4.92504 11.875 4.58337C11.875 4.24171 12.1583 3.95837 12.5 3.95837C13.3083 3.95837 14.1583 4.39171 14.9 5.18337C15.5917 5.92504 16.0417 6.83337 16.0417 7.50004C16.0417 7.84171 15.7583 8.12504 15.4167 8.12504Z" fill="white"/>
<path d="M18.3333 8.12496C17.9917 8.12496 17.7083 7.84163 17.7083 7.49996C17.7083 4.62496 15.375 2.29163 12.5 2.29163C12.1583 2.29163 11.875 2.00829 11.875 1.66663C11.875 1.32496 12.1583 1.04163 12.5 1.04163C16.0583 1.04163 18.9583 3.94163 18.9583 7.49996C18.9583 7.84163 18.675 8.12496 18.3333 8.12496Z" fill="white"/>
</svg>
