<svg width="24" height="22" viewBox="0 0 24 22" fill="none" xmlns="http://www.w3.org/2000/svg">
<path d="M20.592 0L22.944 2.89958C22.048 3.69735 21.184 4.92469 20.352 6.58159C19.552 8.20781 19.12 10.2636 19.056 12.749L24 13.3473V22H14.4V17.9038C14.4 17.5356 14.416 16.7685 14.448 15.6025C14.48 14.4059 14.512 13.6081 14.544 13.2092C14.576 12.7796 14.624 12.0586 14.688 11.046C14.752 10.0335 14.848 9.29707 14.976 8.83682C15.104 8.37657 15.264 7.73222 15.456 6.90377C15.648 6.07531 15.888 5.41562 16.176 4.92469C16.496 4.43375 16.848 3.86611 17.232 3.22176C17.648 2.57741 18.128 2.00976 18.672 1.51883C19.248 0.997211 19.888 0.490934 20.592 0ZM6.48 0L8.832 2.89958C7.936 3.69735 7.072 4.92469 6.24 6.58159C5.44 8.20781 5.008 10.2483 4.944 12.7029L9.6 13.3473V22H0V17.9038C0 16.0321 0.016 14.6053 0.048 13.6234C0.08 12.6416 0.208 11.3835 0.432 9.84937C0.656 8.28452 0.976 7.01116 1.392 6.02929C1.84 5.04742 2.48 4.00418 3.312 2.89958C4.176 1.79498 5.232 0.828452 6.48 0Z" fill="#00887B"/>
</svg>
