<svg width="20" height="20" viewBox="0 0 20 20" fill="none" xmlns="http://www.w3.org/2000/svg">
<path d="M10.0004 11.8084C8.22539 11.8084 6.77539 10.3667 6.77539 8.58337C6.77539 6.80003 8.22539 5.3667 10.0004 5.3667C11.7754 5.3667 13.2254 6.80837 13.2254 8.5917C13.2254 10.375 11.7754 11.8084 10.0004 11.8084ZM10.0004 6.6167C8.91706 6.6167 8.02539 7.50003 8.02539 8.5917C8.02539 9.68337 8.90872 10.5667 10.0004 10.5667C11.0921 10.5667 11.9754 9.68337 11.9754 8.5917C11.9754 7.50003 11.0837 6.6167 10.0004 6.6167Z" fill="white"/>
<path d="M9.99941 18.9666C8.76608 18.9666 7.52441 18.5 6.55775 17.575C4.09941 15.2083 1.38275 11.4333 2.40775 6.94163C3.33275 2.86663 6.89108 1.04163 9.99941 1.04163C9.99941 1.04163 9.99942 1.04163 10.0077 1.04163C13.1161 1.04163 16.6744 2.86663 17.5994 6.94996C18.6161 11.4416 15.8994 15.2083 13.4411 17.575C12.4744 18.5 11.2327 18.9666 9.99941 18.9666ZM9.99941 2.29163C7.57441 2.29163 4.45775 3.58329 3.63275 7.21663C2.73275 11.1416 5.19941 14.525 7.43275 16.6666C8.87441 18.0583 11.1327 18.0583 12.5744 16.6666C14.7994 14.525 17.2661 11.1416 16.3827 7.21663C15.5494 3.58329 12.4244 2.29163 9.99941 2.29163Z" fill="white"/>
</svg>
