<svg width="20" height="20" viewBox="0 0 20 20" fill="none" xmlns="http://www.w3.org/2000/svg">
<path d="M14.168 17.7084H5.83464C2.79297 17.7084 1.04297 15.9584 1.04297 12.9167V7.08342C1.04297 4.04175 2.79297 2.29175 5.83464 2.29175H14.168C17.2096 2.29175 18.9596 4.04175 18.9596 7.08342V12.9167C18.9596 15.9584 17.2096 17.7084 14.168 17.7084ZM5.83464 3.54175C3.4513 3.54175 2.29297 4.70008 2.29297 7.08342V12.9167C2.29297 15.3001 3.4513 16.4584 5.83464 16.4584H14.168C16.5513 16.4584 17.7096 15.3001 17.7096 12.9167V7.08342C17.7096 4.70008 16.5513 3.54175 14.168 3.54175H5.83464Z" fill="white"/>
<path d="M9.999 10.725C9.299 10.725 8.59067 10.5083 8.049 10.0666L5.44067 7.98331C5.174 7.76664 5.124 7.37497 5.34067 7.10831C5.55734 6.84164 5.94901 6.79164 6.21567 7.00831L8.824 9.09164C9.45733 9.59998 10.5323 9.59998 11.1657 9.09164L13.774 7.00831C14.0407 6.79164 14.4407 6.83331 14.649 7.10831C14.8657 7.37497 14.824 7.77498 14.549 7.98331L11.9407 10.0666C11.4073 10.5083 10.699 10.725 9.999 10.725Z" fill="white"/>
</svg>
